<?xml version="1.0" encoding="UTF-8"?>
<svg xmlns="http://www.w3.org/2000/svg" xmlns:xlink="http://www.w3.org/1999/xlink" width="24pt" height="19pt" viewBox="0 0 24 19" version="1.1">
<defs>
<linearGradient id="linear0" gradientUnits="userSpaceOnUse" x1="0" y1="0" x2="1" y2="1" gradientTransform="matrix(23.902344,0,0,16.355469,0.03125,0.101562)">
<stop offset="0" style="stop-color:rgb(79.607843%,80.784314%,81.568627%);stop-opacity:1;"/>
<stop offset="1" style="stop-color:rgb(51.764706%,51.372549%,54.509804%);stop-opacity:1;"/>
</linearGradient>
<linearGradient id="linear1" gradientUnits="userSpaceOnUse" x1="0" y1="0" x2="1" y2="1" gradientTransform="matrix(13.191406,0,0,13.753906,9.878906,5.179688)">
<stop offset="0" style="stop-color:rgb(15.294118%,42.745098%,76.470588%);stop-opacity:1;"/>
<stop offset="1" style="stop-color:rgb(8.627451%,36.078431%,66.666667%);stop-opacity:1;"/>
</linearGradient>
</defs>
<g id="surface1">
<path style=" stroke:none;fill-rule:evenodd;fill:url(#linear0);" d="M 11.980469 16.457031 C 5.382812 16.457031 0.03125 12.796875 0.03125 8.28125 C 0.03125 3.761719 5.382812 0.101562 11.980469 0.101562 C 18.582031 0.101562 23.933594 3.761719 23.933594 8.28125 C 23.933594 12.796875 18.582031 16.457031 11.980469 16.457031 Z M 13.8125 3.300781 C 8.792969 3.300781 4.726562 5.800781 4.726562 8.890625 C 4.726562 11.976562 8.792969 14.480469 13.8125 14.480469 C 18.828125 14.480469 22.53125 12.769531 22.53125 8.890625 C 22.53125 5.011719 18.828125 3.300781 13.8125 3.300781 Z M 13.8125 3.300781 "/>
<path style=" stroke:none;fill-rule:evenodd;fill:url(#linear1);" d="M 18.230469 12.769531 C 18.230469 12.769531 18.957031 12.992188 19.375 13.207031 C 19.523438 13.285156 19.773438 13.433594 19.957031 13.632812 C 20.132812 13.824219 20.222656 14.019531 20.222656 14.019531 L 23.070312 18.933594 L 18.464844 18.933594 L 16.308594 14.800781 C 16.308594 14.800781 15.867188 14.027344 15.597656 13.800781 C 15.371094 13.613281 15.273438 13.546875 15.050781 13.546875 C 14.894531 13.546875 13.953125 13.546875 13.953125 13.546875 L 13.957031 18.929688 L 9.878906 18.933594 L 9.878906 5.179688 L 18.066406 5.179688 C 18.066406 5.179688 21.796875 5.25 21.796875 8.875 C 21.796875 12.5 18.230469 12.769531 18.230469 12.769531 Z M 16.457031 8.164062 L 13.988281 8.160156 L 13.988281 10.5 L 16.457031 10.5 C 16.457031 10.5 17.601562 10.496094 17.601562 9.308594 C 17.601562 8.101562 16.457031 8.164062 16.457031 8.164062 Z M 16.457031 8.164062 "/>
</g>
</svg>
