<?xml version="1.0" encoding="UTF-8"?>
<svg xmlns="http://www.w3.org/2000/svg" xmlns:xlink="http://www.w3.org/1999/xlink" width="19pt" height="19pt" viewBox="0 0 19 19" version="1.1">
<g id="surface1">
<path style="fill-rule:nonzero;fill:rgb(24.313725%,42.745098%,66.27451%);fill-opacity:1;stroke-width:0.8;stroke-linecap:round;stroke-linejoin:round;stroke:rgb(93.333333%,93.333333%,93.333333%);stroke-opacity:1;stroke-miterlimit:4;" d="M 63.0259 32.7498 C 62.683797 49.802328 48.591778 63.354877 31.526092 63.025931 C 14.473565 62.696986 0.907858 48.604967 1.236804 31.552439 C 1.552591 14.499912 15.631453 0.921047 32.68398 1.236835 C 49.736508 1.539464 63.32853 15.605168 63.0259 32.670853 " transform="matrix(0.296877,0,0,0.296877,0.00000920318,0)"/>
<path style="fill-rule:nonzero;fill:rgb(100%,100%,100%);fill-opacity:1;stroke-width:0.5;stroke-linecap:butt;stroke-linejoin:miter;stroke:rgb(15.294118%,27.058824%,41.568627%);stroke-opacity:1;stroke-miterlimit:4;" d="M 16.276185 34.144529 L 16.276185 15.565695 L 26.078757 15.565695 L 26.078757 41.289222 L 26.841911 41.052381 C 29.828734 40.118176 34.407654 36.973459 37.289215 33.868214 C 41.644452 29.157717 43.907596 24.157747 44.828643 17.170948 L 45.039168 15.565695 L 54.736477 15.565695 L 54.578583 16.999896 C 53.723325 25.328793 51.736495 30.776128 47.31547 36.973459 C 43.012864 43.026053 36.723429 47.749709 29.262948 50.552323 C 26.407703 51.631264 20.881421 52.73652 18.341962 52.73652 L 16.276185 52.73652 Z M 16.276185 34.144529 " transform="matrix(0.296877,0,0,0.296877,0.00000920318,0)"/>
</g>
</svg>
